<?xml version="1.0" encoding="UTF-8"?>
  <!--
  MyBEATS — full UI, drawn at the app's real window size (1280 x 860).

  Monochrome by design: there is no hue anywhere in this file, only greys from
  the app's own token set. Type is SF Pro throughout (Display for the wordmark
  and headings, Text for everything else, SF Mono for the status bar).

  Layer groups are named by region so the Figma import is editable:
  TitleBar / PinnedStrip / SectionNav / VizRail / Breadcrumb / Sankey /
  Assistant / Player / StatusBar.
-->
  <svg xmlns="http://www.w3.org/2000/svg" width="1280" height="860" viewBox="0 0 1280 860" font-family="SF Pro Text, SF Pro, -apple-system, system-ui, sans-serif">
  <g id="Window">
    <rect x="0" y="0" width="1280" height="860" rx="12" fill="#0B0B0B"/>
    <rect x="0.5" y="0.5" width="1279" height="859" rx="12" fill="none" stroke="#262626" stroke-width="1"/>
  </g>
  <g id="TitleBar">
    <rect x="0" y="0" width="1280" height="64" rx="0" fill="#0B0B0B"/>
    <line x1="0" y1="64" x2="1280" y2="64" stroke="#262626" stroke-width="1"/>
    <g id="TitleBar/TrafficLights"><circle cx="20" cy="32" r="6" fill="none" stroke="#3A3A3A" stroke-width="1"/><circle cx="40" cy="32" r="6" fill="none" stroke="#3A3A3A" stroke-width="1"/><circle cx="60" cy="32" r="6" fill="none" stroke="#3A3A3A" stroke-width="1"/></g>
    <g id="TitleBar/Logo"><path d="M96 20 L124 30 L112 44 L118 46 L100 48 Z" fill="#FFFFFF"/></g>
    <g id="TitleBar/Wordmark"><text x="138" y="37" font-family="SF Pro Display, SF Pro Text, SF Pro, -apple-system, system-ui, sans-serif" font-size="15" font-weight="600" fill="#EDEDED" text-anchor="start" letter-spacing="1.4">MyBEATS</text></g>
    <g id="TitleBar/Search"><rect x="700" y="18" width="190" height="28" rx="7" fill="#101010" stroke="#262626" stroke-width="1"/><text x="712" y="36" font-family="SF Pro Text, SF Pro, -apple-system, system-ui, sans-serif" font-size="11.5" font-weight="400" fill="#6B6B6B" text-anchor="start">Search library…</text></g>
    <g id="TitleBar/Rescan"><rect x="900" y="18" width="66" height="28" rx="7" fill="#101010" stroke="#262626" stroke-width="1"/><text x="933.0" y="36" font-family="SF Pro Text, SF Pro, -apple-system, system-ui, sans-serif" font-size="11.5" font-weight="400" fill="#9C9C9C" text-anchor="middle">Rescan</text></g>
    <g id="TitleBar/Addfolder"><rect x="974" y="18" width="88" height="28" rx="7" fill="#101010" stroke="#262626" stroke-width="1"/><text x="1018.0" y="36" font-family="SF Pro Text, SF Pro, -apple-system, system-ui, sans-serif" font-size="11.5" font-weight="400" fill="#9C9C9C" text-anchor="middle">Add folder…</text></g>
    <g id="TitleBar/ThemeToggle"><rect x="1070" y="18" width="30" height="28" rx="7" fill="#101010" stroke="#262626" stroke-width="1"/><circle cx="1085" cy="32" r="4.5" fill="none" stroke="#9C9C9C"/><line x1="1092.2" y1="32.0" x2="1094.4" y2="32.0" stroke="#9C9C9C" stroke-width="1"/><line x1="1090.0911722020105" y1="37.091165447073614" x2="1091.6468081526248" y2="38.64679933367944" stroke="#9C9C9C" stroke-width="1"/><line x1="1085.0000095529233" y1="39.199999999993665" x2="1085.000012471872" y2="41.39999999999173" stroke="#9C9C9C" stroke-width="1"/><line x1="1079.908841307872" y1="37.09117895693828" x2="1078.3532094852776" y2="38.646816971558316" stroke="#9C9C9C" stroke-width="1"/><line x1="1077.8000000000254" y1="32.00001910584651" x2="1075.600000000033" y2="32.00002494374406" stroke="#9C9C9C" stroke-width="1"/><line x1="1079.9088142881428" y1="26.908848062826902" x2="1078.3531742095197" y2="25.35321830424623" stroke="#9C9C9C" stroke-width="1"/><line x1="1084.9999713412303" y1="24.800000000057036" x2="1084.9999625843839" y2="22.600000000074466" stroke="#9C9C9C" stroke-width="1"/><line x1="1090.0911451822094" y1="26.9088075332329" x2="1091.6467728767734" y2="25.353165390609618" stroke="#9C9C9C" stroke-width="1"/></g>
    <g id="TitleBar/Settings"><rect x="1108" y="18" width="30" height="28" rx="7" fill="#101010" stroke="#262626" stroke-width="1"/><circle cx="1123" cy="32" r="4" fill="none" stroke="#9C9C9C"/><circle cx="1123" cy="32" r="8" fill="none" stroke="#9C9C9C" stroke-dasharray="2.6 3.2"/></g>
  </g>
  <g id="PinnedStrip">
    <rect x="0" y="64" width="940" height="54" rx="0" fill="#0B0B0B"/>
    <line x1="0" y1="118" x2="940" y2="118" stroke="#262626" stroke-width="1"/>
    <g id="PinnedStrip/Chip1"><rect x="14" y="75" width="172" height="32" rx="7" fill="#101010" stroke="#3A3A3A" stroke-width="1"/><rect x="19" y="79" width="24" height="24" rx="3" fill="#262626"/><text x="50" y="89" font-family="SF Pro Text, SF Pro, -apple-system, system-ui, sans-serif" font-size="11.5" font-weight="600" fill="#EDEDED" text-anchor="start">Bionic Oldsmobile</text><text x="50" y="101" font-family="SF Pro Text, SF Pro, -apple-system, system-ui, sans-serif" font-size="10.5" font-weight="400" fill="#6B6B6B" text-anchor="start">Analog Brothers</text><text x="175" y="95" font-family="SF Pro Text, SF Pro, -apple-system, system-ui, sans-serif" font-size="13" font-weight="400" fill="#6B6B6B" text-anchor="middle">×</text></g>
    <g id="PinnedStrip/Chip2"><rect x="193" y="75" width="172" height="32" rx="7" fill="#101010" stroke="#3A3A3A" stroke-width="1"/><rect x="198" y="79" width="24" height="24" rx="3" fill="#262626"/><text x="229" y="89" font-family="SF Pro Text, SF Pro, -apple-system, system-ui, sans-serif" font-size="11.5" font-weight="600" fill="#EDEDED" text-anchor="start">A Forest</text><text x="229" y="101" font-family="SF Pro Text, SF Pro, -apple-system, system-ui, sans-serif" font-size="10.5" font-weight="400" fill="#6B6B6B" text-anchor="start">The Cure</text><text x="354" y="95" font-family="SF Pro Text, SF Pro, -apple-system, system-ui, sans-serif" font-size="13" font-weight="400" fill="#6B6B6B" text-anchor="middle">×</text></g>
    <g id="PinnedStrip/Chip3"><rect x="372" y="75" width="172" height="32" rx="7" fill="#101010" stroke="#3A3A3A" stroke-width="1"/><rect x="377" y="79" width="24" height="24" rx="3" fill="#262626"/><text x="408" y="89" font-family="SF Pro Text, SF Pro, -apple-system, system-ui, sans-serif" font-size="11.5" font-weight="600" fill="#EDEDED" text-anchor="start">Child In Time</text><text x="408" y="101" font-family="SF Pro Text, SF Pro, -apple-system, system-ui, sans-serif" font-size="10.5" font-weight="400" fill="#6B6B6B" text-anchor="start">Deep Purple</text><text x="533" y="95" font-family="SF Pro Text, SF Pro, -apple-system, system-ui, sans-serif" font-size="13" font-weight="400" fill="#6B6B6B" text-anchor="middle">×</text></g>
    <g id="PinnedStrip/Chip4"><rect x="551" y="75" width="172" height="32" rx="7" fill="#101010" stroke="#3A3A3A" stroke-width="1"/><rect x="556" y="79" width="24" height="24" rx="3" fill="#262626"/><text x="587" y="89" font-family="SF Pro Text, SF Pro, -apple-system, system-ui, sans-serif" font-size="11.5" font-weight="600" fill="#EDEDED" text-anchor="start">Realist Rhyme</text><text x="587" y="101" font-family="SF Pro Text, SF Pro, -apple-system, system-ui, sans-serif" font-size="10.5" font-weight="400" fill="#6B6B6B" text-anchor="start">DJ Screw</text><text x="712" y="95" font-family="SF Pro Text, SF Pro, -apple-system, system-ui, sans-serif" font-size="13" font-weight="400" fill="#6B6B6B" text-anchor="middle">×</text></g>
    <g id="PinnedStrip/Chip5"><rect x="730" y="75" width="172" height="32" rx="7" fill="#101010" stroke="#3A3A3A" stroke-width="1"/><rect x="735" y="79" width="24" height="24" rx="3" fill="#262626"/><text x="766" y="89" font-family="SF Pro Text, SF Pro, -apple-system, system-ui, sans-serif" font-size="11.5" font-weight="600" fill="#EDEDED" text-anchor="start">Bigga Hood</text><text x="766" y="101" font-family="SF Pro Text, SF Pro, -apple-system, system-ui, sans-serif" font-size="10.5" font-weight="400" fill="#6B6B6B" text-anchor="start">Finsta Bundy</text><text x="891" y="95" font-family="SF Pro Text, SF Pro, -apple-system, system-ui, sans-serif" font-size="13" font-weight="400" fill="#6B6B6B" text-anchor="middle">×</text></g>
  </g>
  <g id="SectionNav">
    <rect x="0" y="118" width="76" height="672" rx="0" fill="#0B0B0B"/>
    <line x1="76" y1="118" x2="76" y2="790" stroke="#262626" stroke-width="1"/>
    <g id="SectionNav/Music"><rect x="23" y="134" width="30" height="30" rx="7" fill="#FFFFFF" stroke="#FFFFFF" stroke-width="1"/><circle cx="38" cy="149" r="8" fill="none" stroke="#0B0B0B" stroke-width="1.5"/><circle cx="38" cy="149" r="3" fill="none" stroke="#0B0B0B" stroke-width="1.5"/><text x="38" y="180" font-family="SF Pro Text, SF Pro, -apple-system, system-ui, sans-serif" font-size="9.5" font-weight="600" fill="#EDEDED" text-anchor="middle" letter-spacing="1.1">MUSIC</text></g>
    <g id="SectionNav/Digger"><rect x="23" y="212" width="30" height="30" rx="7" fill="#101010" stroke="#3A3A3A" stroke-width="1"/><path d="M30.5 220 h15 l-6 7 v7 l-3 -2 v-5 z" fill="none" stroke="#9C9C9C" stroke-width="1.5" stroke-linejoin="round"/><text x="38" y="258" font-family="SF Pro Text, SF Pro, -apple-system, system-ui, sans-serif" font-size="9.5" font-weight="600" fill="#6B6B6B" text-anchor="middle" letter-spacing="1.1">DIGGER</text></g>
    <g id="SectionNav/Converter"><rect x="23" y="290" width="30" height="30" rx="7" fill="#101010" stroke="#3A3A3A" stroke-width="1"/><rect x="29.5" y="296.5" width="8" height="8" fill="none" stroke="#9C9C9C" stroke-width="1.5"/><circle cx="42.5" cy="309.5" r="4" fill="none" stroke="#9C9C9C" stroke-width="1.5"/><path d="M37.5 300.5 h4.5 v4.5" fill="none" stroke="#9C9C9C" stroke-width="1.5" stroke-linejoin="round"/><text x="38" y="336" font-family="SF Pro Text, SF Pro, -apple-system, system-ui, sans-serif" font-size="9.5" font-weight="600" fill="#6B6B6B" text-anchor="middle" letter-spacing="1.1">CONVERTER</text></g>
  </g>
  <g id="VizRail">
    <rect x="76" y="118" width="42" height="672" rx="0" fill="#0B0B0B"/>
    <line x1="118" y1="118" x2="118" y2="790" stroke="#262626" stroke-width="1"/>
    <g id="VizRail/WebMap"><circle cx="97.0" cy="146" r="2.4" fill="#6B6B6B"/><circle cx="90.0" cy="139" r="1.9" fill="#6B6B6B"/><circle cx="104.0" cy="140" r="1.9" fill="#6B6B6B"/><circle cx="98.0" cy="154" r="1.9" fill="#6B6B6B"/><path d="M97.0 146 L90.0 139 M97.0 146 L104.0 140 M97.0 146 L98.0 154" stroke="#6B6B6B" stroke-width="1"/></g>
    <g id="VizRail/Treemap"><rect x="89.0" y="183" width="9" height="9" fill="none" stroke="#6B6B6B"/><rect x="99.0" y="183" width="6" height="9" fill="none" stroke="#6B6B6B"/><rect x="89.0" y="193" width="16" height="6" fill="none" stroke="#6B6B6B"/></g>
    <g id="VizRail/UpSet"><circle cx="91.0" cy="240" r="1.8" fill="#6B6B6B"/><circle cx="97.0" cy="240" r="1.8" fill="#6B6B6B"/><circle cx="103.0" cy="240" r="1.8" fill="#6B6B6B"/><rect x="89.5" y="228" width="3" height="5" fill="#6B6B6B"/><rect x="95.5" y="228" width="3" height="8" fill="#6B6B6B"/><rect x="101.5" y="228" width="3" height="11" fill="#6B6B6B"/></g>
    <g id="VizRail/Sankey"><rect x="83.0" y="267" width="28" height="28" rx="7" fill="#FFFFFF"/><path d="M89.0 275 C95.0 275 95.0 285 105.0 285" stroke="#0B0B0B" stroke-width="2.4" fill="none"/><path d="M89.0 285 C95.0 285 95.0 276 105.0 276" stroke="#0B0B0B" stroke-width="1.4" fill="none"/></g>
    <g id="VizRail/Tempo"><rect x="89.0" y="327" width="3" height="5" fill="#6B6B6B"/><rect x="93.4" y="321" width="3" height="11" fill="#6B6B6B"/><rect x="97.8" y="318" width="3" height="14" fill="#6B6B6B"/><rect x="102.2" y="324" width="3" height="8" fill="#6B6B6B"/></g>
    <g id="VizRail/Keys"><circle cx="97.0" cy="371" r="8" fill="none" stroke="#6B6B6B"/><circle cx="97.0" cy="371" r="3.4" fill="none" stroke="#6B6B6B"/><line x1="97.0" y1="363" x2="97.0" y2="367.6" stroke="#6B6B6B"/></g>
    <g id="VizRail/Years"><path d="M89.0 421 L94.0 415 L98.0 418 L105.0 410" stroke="#6B6B6B" stroke-width="1.5" fill="none" stroke-linejoin="round"/></g>
    <g id="VizRail/Energy"><rect x="89.0" y="454" width="4.6" height="4.6" fill="#6B6B6B" fill-opacity="0.3"/><rect x="95.0" y="454" width="4.6" height="4.6" fill="#6B6B6B" fill-opacity="0.5"/><rect x="101.0" y="454" width="4.6" height="4.6" fill="#6B6B6B" fill-opacity="0.7"/><rect x="89.0" y="460" width="4.6" height="4.6" fill="#6B6B6B" fill-opacity="0.9000000000000001"/><rect x="95.0" y="460" width="4.6" height="4.6" fill="#6B6B6B" fill-opacity="0.3"/><rect x="101.0" y="460" width="4.6" height="4.6" fill="#6B6B6B" fill-opacity="0.5"/><rect x="89.0" y="466" width="4.6" height="4.6" fill="#6B6B6B" fill-opacity="0.7"/><rect x="95.0" y="466" width="4.6" height="4.6" fill="#6B6B6B" fill-opacity="0.9000000000000001"/><rect x="101.0" y="466" width="4.6" height="4.6" fill="#6B6B6B" fill-opacity="0.3"/></g>
  </g>
  <g id="Breadcrumb">
    <line x1="118" y1="156" x2="940" y2="156" stroke="#262626" stroke-width="1"/>
    <g id="Breadcrumb/Playlists"><text x="142" y="142" font-family="SF Pro Text, SF Pro, -apple-system, system-ui, sans-serif" font-size="12" font-weight="400" fill="#9C9C9C" text-anchor="start">Playlists</text></g>
    <g id="Breadcrumb/Recent"><text x="210" y="142" font-family="SF Pro Text, SF Pro, -apple-system, system-ui, sans-serif" font-size="12" font-weight="400" fill="#9C9C9C" text-anchor="start">Recent</text></g>
    <g id="Breadcrumb/Sep"><text x="266" y="142" font-family="SF Pro Text, SF Pro, -apple-system, system-ui, sans-serif" font-size="12" font-weight="400" fill="#6B6B6B" text-anchor="start">›</text></g>
    <g id="Breadcrumb/Path"><text x="280" y="142" font-family="SF Pro Text, SF Pro, -apple-system, system-ui, sans-serif" font-size="12" font-weight="600" fill="#EDEDED" text-anchor="start">All music</text></g>
  </g>
  <g id="Sankey">
    <text x="142" y="186" font-family="SF Pro Display, SF Pro Text, SF Pro, -apple-system, system-ui, sans-serif" font-size="14.5" font-weight="600" fill="#EDEDED" text-anchor="start">Where the hours go</text>
    <text x="142" y="206" font-family="SF Pro Text, SF Pro, -apple-system, system-ui, sans-serif" font-size="11" font-weight="400" fill="#6B6B6B" text-anchor="start">9 genres → 13 decades · 955 hr of dated tracks · click a band to list it</text>
    <g id="Sankey/SvgButton"><rect x="874" y="172" width="40" height="20" rx="5" fill="#101010" stroke="#262626" stroke-width="1"/><text x="894" y="186" font-family="SF Pro Text, SF Pro, -apple-system, system-ui, sans-serif" font-size="9.5" font-weight="600" fill="#9C9C9C" text-anchor="middle">SVG</text></g>
    <g id="Sankey/Ribbons"><path d="M318,234.0 C529.0,234.0 529.0,318.9 740,318.9 L740,514.1 C529.0,514.1 529.0,429.2 318,429.2 Z" fill="#EDEDED" fill-opacity="0.42"/><path d="M318,429.2 C529.0,429.2 529.0,544.7 740,544.7 L740,629.6 C529.0,629.6 529.0,514.1 318,514.1 Z" fill="#EDEDED" fill-opacity="0.42"/><path d="M318,514.1 C529.0,514.1 529.0,691.4 740,691.4 L740,716.6 C529.0,716.6 529.0,539.3 318,539.3 Z" fill="#EDEDED" fill-opacity="0.42"/><path d="M318,539.3 C529.0,539.3 529.0,301.9 740,301.9 L740,311.4 C529.0,311.4 529.0,548.8 318,548.8 Z" fill="#EDEDED" fill-opacity="0.42"/><path d="M318,554.8 C529.0,554.8 529.0,514.1 740,514.1 L740,543.3 C529.0,543.3 529.0,583.9 318,583.9 Z" fill="#EDEDED" fill-opacity="0.25"/><path d="M318,583.9 C529.0,583.9 529.0,629.6 740,629.6 L740,645.6 C529.0,645.6 529.0,599.9 318,599.9 Z" fill="#EDEDED" fill-opacity="0.25"/><path d="M318,599.9 C529.0,599.9 529.0,716.6 740,716.6 L740,722.9 C529.0,722.9 529.0,606.2 318,606.2 Z" fill="#EDEDED" fill-opacity="0.25"/><path d="M318,606.2 C529.0,606.2 529.0,311.4 740,311.4 L740,313.0 C529.0,313.0 529.0,607.8 318,607.8 Z" fill="#EDEDED" fill-opacity="0.25"/><path d="M318,613.8 C529.0,613.8 529.0,291.8 740,291.8 L740,297.6 C529.0,297.6 529.0,619.6 318,619.6 Z" fill="#EDEDED" fill-opacity="0.18"/><path d="M318,619.6 C529.0,619.6 529.0,543.3 740,543.3 L740,549.0 C529.0,549.0 529.0,625.3 318,625.3 Z" fill="#EDEDED" fill-opacity="0.18"/><path d="M318,625.3 C529.0,625.3 529.0,645.6 740,645.6 L740,650.4 C529.0,650.4 529.0,630.1 318,630.1 Z" fill="#EDEDED" fill-opacity="0.18"/><path d="M318,630.1 C529.0,630.1 529.0,313.0 740,313.0 L740,315.8 C529.0,315.8 529.0,633.0 318,633.0 Z" fill="#EDEDED" fill-opacity="0.18"/><path d="M318,639.0 C529.0,639.0 529.0,275.7 740,275.7 L740,280.4 C529.0,280.4 529.0,643.7 318,643.7 Z" fill="#EDEDED" fill-opacity="0.17"/><path d="M318,643.7 C529.0,643.7 529.0,283.3 740,283.3 L740,288.0 C529.0,288.0 529.0,648.4 318,648.4 Z" fill="#EDEDED" fill-opacity="0.17"/><path d="M318,648.4 C529.0,648.4 529.0,256.8 740,256.8 L740,259.9 C529.0,259.9 529.0,651.5 318,651.5 Z" fill="#EDEDED" fill-opacity="0.17"/><path d="M318,651.5 C529.0,651.5 529.0,297.6 740,297.6 L740,300.7 C529.0,300.7 529.0,654.7 318,654.7 Z" fill="#EDEDED" fill-opacity="0.17"/><path d="M318,660.7 C529.0,660.7 529.0,650.4 740,650.4 L740,653.0 C529.0,653.0 529.0,663.3 318,663.3 Z" fill="#EDEDED" fill-opacity="0.15"/><path d="M318,663.3 C529.0,663.3 529.0,722.9 740,722.9 L740,725.2 C529.0,725.2 529.0,665.6 318,665.6 Z" fill="#EDEDED" fill-opacity="0.15"/><path d="M318,665.6 C529.0,665.6 529.0,549.0 740,549.0 L740,550.7 C529.0,550.7 529.0,667.2 318,667.2 Z" fill="#EDEDED" fill-opacity="0.15"/><path d="M318,673.2 C529.0,673.2 529.0,550.7 740,550.7 L740,554.3 C529.0,554.3 529.0,676.9 318,676.9 Z" fill="#EDEDED" fill-opacity="0.15"/><path d="M318,676.9 C529.0,676.9 529.0,653.0 740,653.0 L740,655.4 C529.0,655.4 529.0,679.3 318,679.3 Z" fill="#EDEDED" fill-opacity="0.15"/><path d="M318,685.3 C529.0,685.3 529.0,655.4 740,655.4 L740,657.6 C529.0,657.6 529.0,687.5 318,687.5 Z" fill="#EDEDED" fill-opacity="0.15"/><path d="M318,687.5 C529.0,687.5 529.0,725.2 740,725.2 L740,726.9 C529.0,726.9 529.0,689.2 318,689.2 Z" fill="#EDEDED" fill-opacity="0.15"/><path d="M318,689.2 C529.0,689.2 529.0,554.3 740,554.3 L740,556.0 C529.0,556.0 529.0,690.9 318,690.9 Z" fill="#EDEDED" fill-opacity="0.15"/><path d="M318,696.9 C529.0,696.9 529.0,300.7 740,300.7 L740,303.2 C529.0,303.2 529.0,699.4 318,699.4 Z" fill="#EDEDED" fill-opacity="0.15"/><path d="M318,699.4 C529.0,699.4 529.0,315.8 740,315.8 L740,317.3 C529.0,317.3 529.0,700.9 318,700.9 Z" fill="#EDEDED" fill-opacity="0.15"/><path d="M318,700.9 C529.0,700.9 529.0,556.0 740,556.0 L740,557.0 C529.0,557.0 529.0,701.9 318,701.9 Z" fill="#EDEDED" fill-opacity="0.15"/><path d="M318,707.9 C529.0,707.9 529.0,557.0 740,557.0 L740,573.8 C529.0,573.8 529.0,724.7 318,724.7 Z" fill="#EDEDED" fill-opacity="0.26"/><path d="M318,724.7 C529.0,724.7 529.0,657.6 740,657.6 L740,671.7 C529.0,671.7 529.0,738.8 318,738.8 Z" fill="#EDEDED" fill-opacity="0.26"/><path d="M318,738.8 C529.0,738.8 529.0,726.9 740,726.9 L740,738.1 C529.0,738.1 529.0,750.0 318,750.0 Z" fill="#EDEDED" fill-opacity="0.26"/><path d="M318,750.0 C529.0,750.0 529.0,317.3 740,317.3 L740,325.8 C529.0,325.8 529.0,758.4 318,758.4 Z" fill="#EDEDED" fill-opacity="0.26"/><path d="M318,758.4 C529.0,758.4 529.0,259.9 740,259.9 L740,265.5 C529.0,265.5 529.0,764.0 318,764.0 Z" fill="#EDEDED" fill-opacity="0.26"/></g>
    <g id="Sankey/GenreColumn"><rect x="308" y="234" width="10" height="314.7651991614256" rx="2" fill="#FFFFFF"/><text x="298" y="395.3825995807128" font-family="SF Pro Text, SF Pro, -apple-system, system-ui, sans-serif" font-size="11.5" font-weight="500" fill="#EDEDED" text-anchor="end">Hip-Hop</text><text x="298" y="408.3825995807128" font-family="SF Pro Text, SF Pro, -apple-system, system-ui, sans-serif" font-size="10" font-weight="400" fill="#6B6B6B" text-anchor="end">623 hr</text><rect x="308" y="554.7651991614256" width="10" height="53.0503144654088" rx="2" fill="#FFFFFF"/><text x="298" y="585.29035639413" font-family="SF Pro Text, SF Pro, -apple-system, system-ui, sans-serif" font-size="11.5" font-weight="500" fill="#EDEDED" text-anchor="end">Rap</text><text x="298" y="598.29035639413" font-family="SF Pro Text, SF Pro, -apple-system, system-ui, sans-serif" font-size="10" font-weight="400" fill="#6B6B6B" text-anchor="end">105 hr</text><rect x="308" y="613.8155136268344" width="10" height="19.19916142557652" rx="2" fill="#FFFFFF"/><text x="298" y="627.4150943396227" font-family="SF Pro Text, SF Pro, -apple-system, system-ui, sans-serif" font-size="11.5" font-weight="500" fill="#EDEDED" text-anchor="end">Reggae</text><rect x="308" y="639.014675052411" width="10" height="15.662473794549266" rx="2" fill="#FFFFFF"/><text x="298" y="650.8459119496856" font-family="SF Pro Text, SF Pro, -apple-system, system-ui, sans-serif" font-size="11.5" font-weight="500" fill="#EDEDED" text-anchor="end">Jazz</text><rect x="308" y="660.6771488469602" width="10" height="6.568134171907757" rx="2" fill="#FFFFFF"/><text x="298" y="667.9612159329141" font-family="SF Pro Text, SF Pro, -apple-system, system-ui, sans-serif" font-size="11.5" font-weight="500" fill="#EDEDED" text-anchor="end">Soundtrack</text><rect x="308" y="673.245283018868" width="10" height="6.062893081761007" rx="2" fill="#FFFFFF"/><text x="298" y="682.9612159329141" font-family="SF Pro Text, SF Pro, -apple-system, system-ui, sans-serif" font-size="11.5" font-weight="500" fill="#EDEDED" text-anchor="end">Screwed</text><rect x="308" y="685.308176100629" width="10" height="5.5576519916142555" rx="2" fill="#FFFFFF"/><text x="298" y="697.9612159329141" font-family="SF Pro Text, SF Pro, -apple-system, system-ui, sans-serif" font-size="11.5" font-weight="500" fill="#EDEDED" text-anchor="end">Unsorted</text><rect x="308" y="696.8658280922433" width="10" height="5.052410901467505" rx="2" fill="#FFFFFF"/><text x="298" y="712.9612159329141" font-family="SF Pro Text, SF Pro, -apple-system, system-ui, sans-serif" font-size="11.5" font-weight="500" fill="#EDEDED" text-anchor="end">Funk</text><rect x="308" y="707.9182389937108" width="10" height="56.08176100628931" rx="2" fill="#9C9C9C"/><text x="298" y="739.9591194968555" font-family="SF Pro Text, SF Pro, -apple-system, system-ui, sans-serif" font-size="11.5" font-weight="500" fill="#6B6B6B" text-anchor="end">50 more genres</text><text x="298" y="752.9591194968555" font-family="SF Pro Text, SF Pro, -apple-system, system-ui, sans-serif" font-size="10" font-weight="400" fill="#6B6B6B" text-anchor="end">111 hr</text></g>
    <g id="Sankey/DecadeColumn"><rect x="740" y="234" width="10" height="1.6" rx="2" fill="#FFFFFF"/><text x="758" y="238.8" font-family="SF Pro Text, SF Pro, -apple-system, system-ui, sans-serif" font-size="11.5" font-weight="500" fill="#EDEDED" text-anchor="start">1900s</text><rect x="740" y="241.6" width="10" height="1.6" rx="2" fill="#FFFFFF"/><text x="758" y="253.8" font-family="SF Pro Text, SF Pro, -apple-system, system-ui, sans-serif" font-size="11.5" font-weight="500" fill="#EDEDED" text-anchor="start">1910s</text><rect x="740" y="249.2" width="10" height="1.6" rx="2" fill="#FFFFFF"/><text x="758" y="268.8" font-family="SF Pro Text, SF Pro, -apple-system, system-ui, sans-serif" font-size="11.5" font-weight="500" fill="#EDEDED" text-anchor="start">1920s</text><rect x="740" y="256.8" width="10" height="5.265743402142671" rx="2" fill="#FFFFFF"/><text x="758" y="283.8" font-family="SF Pro Text, SF Pro, -apple-system, system-ui, sans-serif" font-size="11.5" font-weight="500" fill="#EDEDED" text-anchor="start">1930s</text><rect x="740" y="268.0657434021427" width="10" height="1.6" rx="2" fill="#FFFFFF"/><text x="758" y="298.8" font-family="SF Pro Text, SF Pro, -apple-system, system-ui, sans-serif" font-size="11.5" font-weight="500" fill="#EDEDED" text-anchor="start">1940s</text><rect x="740" y="275.6657434021427" width="10" height="1.6" rx="2" fill="#FFFFFF"/><text x="758" y="313.8" font-family="SF Pro Text, SF Pro, -apple-system, system-ui, sans-serif" font-size="11.5" font-weight="500" fill="#EDEDED" text-anchor="start">1950s</text><rect x="740" y="283.26574340214273" width="10" height="2.5371309119414684" rx="2" fill="#FFFFFF"/><text x="758" y="328.8" font-family="SF Pro Text, SF Pro, -apple-system, system-ui, sans-serif" font-size="11.5" font-weight="500" fill="#EDEDED" text-anchor="start">1960s</text><rect x="740" y="291.8028743140842" width="10" height="4.116853932584269" rx="2" fill="#FFFFFF"/><text x="758" y="343.8" font-family="SF Pro Text, SF Pro, -apple-system, system-ui, sans-serif" font-size="11.5" font-weight="500" fill="#EDEDED" text-anchor="start">1970s</text><rect x="740" y="301.91972824666846" width="10" height="11.010190749934674" rx="2" fill="#FFFFFF"/><text x="758" y="358.8" font-family="SF Pro Text, SF Pro, -apple-system, system-ui, sans-serif" font-size="11.5" font-weight="500" fill="#EDEDED" text-anchor="start">1980s</text><rect x="740" y="318.92991899660313" width="10" height="219.72511105304417" rx="2" fill="#FFFFFF"/><text x="758" y="432.79247452312524" font-family="SF Pro Text, SF Pro, -apple-system, system-ui, sans-serif" font-size="11.5" font-weight="500" fill="#EDEDED" text-anchor="start">1990s</text><text x="758" y="445.79247452312524" font-family="SF Pro Text, SF Pro, -apple-system, system-ui, sans-serif" font-size="10" font-weight="400" fill="#6B6B6B" text-anchor="start">459 hr</text><rect x="740" y="544.6550300496473" width="10" height="140.7389600209041" rx="2" fill="#FFFFFF"/><text x="758" y="619.0245100600994" font-family="SF Pro Text, SF Pro, -apple-system, system-ui, sans-serif" font-size="11.5" font-weight="500" fill="#EDEDED" text-anchor="start">2000s</text><text x="758" y="632.0245100600994" font-family="SF Pro Text, SF Pro, -apple-system, system-ui, sans-serif" font-size="10" font-weight="400" fill="#6B6B6B" text-anchor="start">294 hr</text><rect x="740" y="691.3939900705514" width="10" height="56.965769532270706" rx="2" fill="#FFFFFF"/><text x="758" y="723.8768748366867" font-family="SF Pro Text, SF Pro, -apple-system, system-ui, sans-serif" font-size="11.5" font-weight="500" fill="#EDEDED" text-anchor="start">2010s</text><text x="758" y="736.8768748366867" font-family="SF Pro Text, SF Pro, -apple-system, system-ui, sans-serif" font-size="10" font-weight="400" fill="#6B6B6B" text-anchor="start">119 hr</text><rect x="740" y="754.359759602822" width="10" height="14.839822315129345" rx="2" fill="#FFFFFF"/><text x="758" y="765.7796707603867" font-family="SF Pro Text, SF Pro, -apple-system, system-ui, sans-serif" font-size="11.5" font-weight="500" fill="#EDEDED" text-anchor="start">2020s</text></g>
  </g>
  <g id="Assistant">
    <rect x="940" y="64" width="340" height="726" rx="0" fill="#0B0B0B"/>
    <line x1="940" y1="64" x2="940" y2="790" stroke="#262626" stroke-width="1"/>
    <g id="Assistant/TabAssistant"><rect x="956" y="76" width="79.6" height="24" rx="6" fill="#FFFFFF"/><text x="995.8" y="92" font-family="SF Pro Text, SF Pro, -apple-system, system-ui, sans-serif" font-size="11.5" font-weight="600" fill="#0B0B0B" text-anchor="middle">Assistant</text></g>
    <g id="Assistant/TabLyrics"><text x="1073.8" y="92" font-family="SF Pro Text, SF Pro, -apple-system, system-ui, sans-serif" font-size="11.5" font-weight="400" fill="#6B6B6B" text-anchor="middle">Lyrics</text></g>
    <g id="Assistant/TabEQ"><text x="1129.4" y="92" font-family="SF Pro Text, SF Pro, -apple-system, system-ui, sans-serif" font-size="11.5" font-weight="400" fill="#6B6B6B" text-anchor="middle">EQ</text></g>
    <line x1="940" y1="112" x2="1280" y2="112" stroke="#262626" stroke-width="1"/>
    <g id="Assistant/Conversation"><text x="956" y="142" font-family="SF Pro Text, SF Pro, -apple-system, system-ui, sans-serif" font-size="9.5" font-weight="600" fill="#6B6B6B" text-anchor="start" letter-spacing="1.1">VANDALZ</text><text x="956" y="164" font-family="SF Pro Text, SF Pro, -apple-system, system-ui, sans-serif" font-size="12" font-weight="400" fill="#EDEDED" text-anchor="start">Ask me to find music, or to tidy up your</text><text x="956" y="182" font-family="SF Pro Text, SF Pro, -apple-system, system-ui, sans-serif" font-size="12" font-weight="400" fill="#EDEDED" text-anchor="start">metadata. I run locally — nothing leaves</text><text x="956" y="200" font-family="SF Pro Text, SF Pro, -apple-system, system-ui, sans-serif" font-size="12" font-weight="400" fill="#EDEDED" text-anchor="start">this Mac.</text></g>
    <g id="Assistant/Composer"><rect x="956" y="672" width="308" height="56" rx="8" fill="#101010" stroke="#262626" stroke-width="1"/><text x="968" y="694" font-family="SF Pro Text, SF Pro, -apple-system, system-ui, sans-serif" font-size="11.5" font-weight="400" fill="#6B6B6B" text-anchor="start">Ask about your library, or describe</text><text x="968" y="710" font-family="SF Pro Text, SF Pro, -apple-system, system-ui, sans-serif" font-size="11.5" font-weight="400" fill="#6B6B6B" text-anchor="start">what you want to hear…</text></g>
    <g id="Assistant/Ask"><rect x="956" y="740" width="46" height="26" rx="7" fill="#FFFFFF"/><text x="979" y="758" font-family="SF Pro Text, SF Pro, -apple-system, system-ui, sans-serif" font-size="11.5" font-weight="600" fill="#0B0B0B" text-anchor="middle">Ask</text></g>
    <g id="Assistant/CleanGenres"><rect x="1010" y="740" width="108" height="26" rx="7" fill="#101010" stroke="#262626" stroke-width="1"/><text x="1064" y="758" font-family="SF Pro Text, SF Pro, -apple-system, system-ui, sans-serif" font-size="11" font-weight="400" fill="#9C9C9C" text-anchor="middle">Clean up genres</text></g>
    <g id="Assistant/MemoryToggle"><rect x="1164" y="746" width="26" height="14" rx="7" fill="#262626"/><circle cx="1171" cy="753" r="5" fill="#6B6B6B"/><text x="1196" y="757" font-family="SF Pro Text, SF Pro, -apple-system, system-ui, sans-serif" font-size="10.5" font-weight="400" fill="#6B6B6B" text-anchor="start">Memory off</text></g>
  </g>
  <g id="Player">
    <rect x="0" y="790" width="1280" height="42" rx="0" fill="#0B0B0B"/>
    <line x1="0" y1="790" x2="1280" y2="790" stroke="#262626" stroke-width="1"/>
    <g id="Player/Artwork"><rect x="16" y="798" width="30" height="30" rx="6" fill="#101010" stroke="#262626" stroke-width="1"/><circle cx="31" cy="813" r="4" fill="none" stroke="#6B6B6B"/></g>
    <g id="Player/NowPlaying"><text x="56" y="810" font-family="SF Pro Text, SF Pro, -apple-system, system-ui, sans-serif" font-size="12" font-weight="600" fill="#EDEDED" text-anchor="start">Nothing loaded</text><text x="56" y="824" font-family="SF Pro Text, SF Pro, -apple-system, system-ui, sans-serif" font-size="10.5" font-weight="400" fill="#6B6B6B" text-anchor="start">Pick a song from the map</text></g>
    <g id="Player/Transport"><rect x="425" y="798" width="30" height="30" rx="7" fill="#101010" stroke="#262626" stroke-width="1"/><circle cx="440" cy="813" r="4" fill="none" stroke="#9C9C9C"/><rect x="465" y="798" width="30" height="30" rx="7" fill="#101010" stroke="#262626" stroke-width="1"/><path d="M476 806 L486 813 L476 820 Z" fill="#EDEDED"/><rect x="505" y="798" width="30" height="30" rx="7" fill="#101010" stroke="#262626" stroke-width="1"/><circle cx="520" cy="813" r="4" fill="none" stroke="#9C9C9C"/><rect x="547" y="798" width="30" height="30" rx="7" fill="#101010" stroke="#262626" stroke-width="1"/><circle cx="562" cy="813" r="4" fill="none" stroke="#9C9C9C"/><rect x="587" y="798" width="30" height="30" rx="7" fill="#101010" stroke="#262626" stroke-width="1"/><circle cx="602" cy="813" r="4" fill="none" stroke="#9C9C9C"/></g>
    <g id="Player/Seek"><text x="650" y="817" font-family="SF Mono, ui-monospace, SFMono-Regular, Menlo, monospace" font-size="10.5" font-weight="400" fill="#6B6B6B" text-anchor="start">0:00</text><line x1="690" y1="813" x2="1060" y2="813" stroke="#262626" stroke-width="3"/><circle cx="692" cy="813" r="5" fill="#FFFFFF"/><text x="1074" y="817" font-family="SF Mono, ui-monospace, SFMono-Regular, Menlo, monospace" font-size="10.5" font-weight="400" fill="#6B6B6B" text-anchor="start">0:00</text></g>
    <g id="Player/Volume"><path d="M1118 809 h5 l5 -4 v12 l-5 -4 h-5 Z" fill="#9C9C9C"/><line x1="1140" y1="813" x2="1240" y2="813" stroke="#262626" stroke-width="3"/><circle cx="1240" cy="813" r="5" fill="#FFFFFF"/></g>
  </g>
  <g id="StatusBar">
    <rect x="0" y="832" width="1280" height="28" rx="0" fill="#0B0B0B"/>
    <line x1="0" y1="832" x2="1280" y2="832" stroke="#262626" stroke-width="1"/>
    <text x="16" y="850" font-family="SF Mono, ui-monospace, SFMono-Regular, Menlo, monospace" font-size="10.5" font-weight="400" fill="#6B6B6B" text-anchor="start">17,070 tracks  ·  2,333 artists  ·  1,487 albums</text>
    <circle cx="1176" cy="846" r="3" fill="#9C9C9C"/>
    <text x="1264" y="850" font-family="SF Mono, ui-monospace, SFMono-Regular, Menlo, monospace" font-size="10.5" font-weight="400" fill="#6B6B6B" text-anchor="end">QWEN2.5:14B</text>
  </g>
</svg>