<svg xmlns="http://www.w3.org/2000/svg" width="671" height="258" viewBox="0 0 671 258"><rect width="671" height="258" fill="#0B0B0B"/><text x="54" y="26" fill="#EDEDED" font-family="system-ui,sans-serif" font-size="15" font-weight="600">When you listen</text><text x="54" y="40" fill="#6B6B6B" font-family="system-ui,sans-serif" font-size="10">579 plays · by hour and weekday, local time</text><text x="44" y="61.4" fill="#6B6B6B" text-anchor="end" font-family="system-ui,sans-serif" font-size="10">Sun</text><rect x="54" y="46" width="22" height="22" rx="3" fill="#101010"/><rect x="79" y="46" width="22" height="22" rx="3" fill="#101010"/><rect x="104" y="46" width="22" height="22" rx="3" fill="#101010"/><rect x="129" y="46" width="22" height="22" rx="3" fill="#101010"/><rect x="154" y="46" width="22" height="22" rx="3" fill="#101010"/><rect x="179" y="46" width="22" height="22" rx="3" fill="#101010"/><rect x="204" y="46" width="22" height="22" rx="3" fill="#101010"/><rect x="229" y="46" width="22" height="22" rx="3" fill="#101010"/><rect x="254" y="46" width="22" height="22" rx="3" fill="#101010"/><rect x="279" y="46" width="22" height="22" rx="3" fill="#101010"/><rect x="304" y="46" width="22" height="22" rx="3" fill="#101010"/><rect x="329" y="46" width="22" height="22" rx="3" fill="#101010"/><rect x="354" y="46" width="22" height="22" rx="3" fill="#101010"/><rect x="379" y="46" width="22" height="22" rx="3" fill="#101010"/><rect x="404" y="46" width="22" height="22" rx="3" fill="#101010"/><rect x="429" y="46" width="22" height="22" rx="3" fill="#101010"/><rect x="454" y="46" width="22" height="22" rx="3" fill="#101010"/><rect x="479" y="46" width="22" height="22" rx="3" fill="#101010"/><rect x="504" y="46" width="22" height="22" rx="3" fill="#101010"/><rect x="529" y="46" width="22" height="22" rx="3" fill="#101010"/><rect x="554" y="46" width="22" height="22" rx="3" fill="#101010"/><rect x="579" y="46" width="22" height="22" rx="3" fill="#101010"/><rect x="604" y="46" width="22" height="22" rx="3" fill="#101010"/><rect x="629" y="46" width="22" height="22" rx="3" fill="#101010"/><text x="44" y="86.4" fill="#6B6B6B" text-anchor="end" font-family="system-ui,sans-serif" font-size="10">Mon</text><rect x="54" y="71" width="22" height="22" rx="3" fill="#101010"/><rect x="79" y="71" width="22" height="22" rx="3" fill="#5f290b"/><rect x="104" y="71" width="22" height="22" rx="3" fill="#101010"/><rect x="129" y="71" width="22" height="22" rx="3" fill="#101010"/><rect x="154" y="71" width="22" height="22" rx="3" fill="#101010"/><rect x="179" y="71" width="22" height="22" rx="3" fill="#101010"/><rect x="204" y="71" width="22" height="22" rx="3" fill="#101010"/><rect x="229" y="71" width="22" height="22" rx="3" fill="#101010"/><rect x="254" y="71" width="22" height="22" rx="3" fill="#101010"/><rect x="279" y="71" width="22" height="22" rx="3" fill="#101010"/><rect x="304" y="71" width="22" height="22" rx="3" fill="#5b280b"/><rect x="329" y="71" width="22" height="22" rx="3" fill="#101010"/><rect x="354" y="71" width="22" height="22" rx="3" fill="#101010"/><rect x="379" y="71" width="22" height="22" rx="3" fill="#101010"/><rect x="404" y="71" width="22" height="22" rx="3" fill="#101010"/><rect x="429" y="71" width="22" height="22" rx="3" fill="#6b2d0a"/><rect x="454" y="71" width="22" height="22" rx="3" fill="#a94106"/><rect x="479" y="71" width="22" height="22" rx="3" fill="#5b280b"/><rect x="504" y="71" width="22" height="22" rx="3" fill="#101010"/><rect x="529" y="71" width="22" height="22" rx="3" fill="#101010"/><rect x="554" y="71" width="22" height="22" rx="3" fill="#101010"/><rect x="579" y="71" width="22" height="22" rx="3" fill="#101010"/><rect x="604" y="71" width="22" height="22" rx="3" fill="#101010"/><rect x="629" y="71" width="22" height="22" rx="3" fill="#101010"/><text x="44" y="111.4" fill="#6B6B6B" text-anchor="end" font-family="system-ui,sans-serif" font-size="10">Tue</text><rect x="54" y="96" width="22" height="22" rx="3" fill="#54250b"/><rect x="79" y="96" width="22" height="22" rx="3" fill="#6b2d0a"/><rect x="104" y="96" width="22" height="22" rx="3" fill="#101010"/><rect x="129" y="96" width="22" height="22" rx="3" fill="#101010"/><rect x="154" y="96" width="22" height="22" rx="3" fill="#101010"/><rect x="179" y="96" width="22" height="22" rx="3" fill="#101010"/><rect x="204" y="96" width="22" height="22" rx="3" fill="#101010"/><rect x="229" y="96" width="22" height="22" rx="3" fill="#101010"/><rect x="254" y="96" width="22" height="22" rx="3" fill="#101010"/><rect x="279" y="96" width="22" height="22" rx="3" fill="#5b280b"/><rect x="304" y="96" width="22" height="22" rx="3" fill="#8a3708"/><rect x="329" y="96" width="22" height="22" rx="3" fill="#8e3808"/><rect x="354" y="96" width="22" height="22" rx="3" fill="#b94605"/><rect x="379" y="96" width="22" height="22" rx="3" fill="#ff5c00"/><rect x="404" y="96" width="22" height="22" rx="3" fill="#773109"/><rect x="429" y="96" width="22" height="22" rx="3" fill="#8e3808"/><rect x="454" y="96" width="22" height="22" rx="3" fill="#b54405"/><rect x="479" y="96" width="22" height="22" rx="3" fill="#54250b"/><rect x="504" y="96" width="22" height="22" rx="3" fill="#101010"/><rect x="529" y="96" width="22" height="22" rx="3" fill="#101010"/><rect x="554" y="96" width="22" height="22" rx="3" fill="#101010"/><rect x="579" y="96" width="22" height="22" rx="3" fill="#101010"/><rect x="604" y="96" width="22" height="22" rx="3" fill="#101010"/><rect x="629" y="96" width="22" height="22" rx="3" fill="#101010"/><text x="44" y="136.4" fill="#6B6B6B" text-anchor="end" font-family="system-ui,sans-serif" font-size="10">Wed</text><rect x="54" y="121" width="22" height="22" rx="3" fill="#101010"/><rect x="79" y="121" width="22" height="22" rx="3" fill="#101010"/><rect x="104" y="121" width="22" height="22" rx="3" fill="#101010"/><rect x="129" y="121" width="22" height="22" rx="3" fill="#101010"/><rect x="154" y="121" width="22" height="22" rx="3" fill="#101010"/><rect x="179" y="121" width="22" height="22" rx="3" fill="#101010"/><rect x="204" y="121" width="22" height="22" rx="3" fill="#101010"/><rect x="229" y="121" width="22" height="22" rx="3" fill="#101010"/><rect x="254" y="121" width="22" height="22" rx="3" fill="#732f09"/><rect x="279" y="121" width="22" height="22" rx="3" fill="#9e3d07"/><rect x="304" y="121" width="22" height="22" rx="3" fill="#632a0a"/><rect x="329" y="121" width="22" height="22" rx="3" fill="#a54006"/><rect x="354" y="121" width="22" height="22" rx="3" fill="#ad4205"/><rect x="379" y="121" width="22" height="22" rx="3" fill="#bd4704"/><rect x="404" y="121" width="22" height="22" rx="3" fill="#101010"/><rect x="429" y="121" width="22" height="22" rx="3" fill="#9a3c07"/><rect x="454" y="121" width="22" height="22" rx="3" fill="#7e3309"/><rect x="479" y="121" width="22" height="22" rx="3" fill="#101010"/><rect x="504" y="121" width="22" height="22" rx="3" fill="#101010"/><rect x="529" y="121" width="22" height="22" rx="3" fill="#101010"/><rect x="554" y="121" width="22" height="22" rx="3" fill="#101010"/><rect x="579" y="121" width="22" height="22" rx="3" fill="#101010"/><rect x="604" y="121" width="22" height="22" rx="3" fill="#101010"/><rect x="629" y="121" width="22" height="22" rx="3" fill="#101010"/><text x="44" y="161.4" fill="#6B6B6B" text-anchor="end" font-family="system-ui,sans-serif" font-size="10">Thu</text><rect x="54" y="146" width="22" height="22" rx="3" fill="#5b280b"/><rect x="79" y="146" width="22" height="22" rx="3" fill="#101010"/><rect x="104" y="146" width="22" height="22" rx="3" fill="#101010"/><rect x="129" y="146" width="22" height="22" rx="3" fill="#101010"/><rect x="154" y="146" width="22" height="22" rx="3" fill="#101010"/><rect x="179" y="146" width="22" height="22" rx="3" fill="#101010"/><rect x="204" y="146" width="22" height="22" rx="3" fill="#101010"/><rect x="229" y="146" width="22" height="22" rx="3" fill="#101010"/><rect x="254" y="146" width="22" height="22" rx="3" fill="#101010"/><rect x="279" y="146" width="22" height="22" rx="3" fill="#963b07"/><rect x="304" y="146" width="22" height="22" rx="3" fill="#8e3808"/><rect x="329" y="146" width="22" height="22" rx="3" fill="#ad4205"/><rect x="354" y="146" width="22" height="22" rx="3" fill="#863608"/><rect x="379" y="146" width="22" height="22" rx="3" fill="#101010"/><rect x="404" y="146" width="22" height="22" rx="3" fill="#6f2e0a"/><rect x="429" y="146" width="22" height="22" rx="3" fill="#b14305"/><rect x="454" y="146" width="22" height="22" rx="3" fill="#672c0a"/><rect x="479" y="146" width="22" height="22" rx="3" fill="#8e3808"/><rect x="504" y="146" width="22" height="22" rx="3" fill="#101010"/><rect x="529" y="146" width="22" height="22" rx="3" fill="#101010"/><rect x="554" y="146" width="22" height="22" rx="3" fill="#672c0a"/><rect x="579" y="146" width="22" height="22" rx="3" fill="#672c0a"/><rect x="604" y="146" width="22" height="22" rx="3" fill="#101010"/><rect x="629" y="146" width="22" height="22" rx="3" fill="#101010"/><text x="44" y="186.4" fill="#6B6B6B" text-anchor="end" font-family="system-ui,sans-serif" font-size="10">Fri</text><rect x="54" y="171" width="22" height="22" rx="3" fill="#101010"/><rect x="79" y="171" width="22" height="22" rx="3" fill="#101010"/><rect x="104" y="171" width="22" height="22" rx="3" fill="#101010"/><rect x="129" y="171" width="22" height="22" rx="3" fill="#101010"/><rect x="154" y="171" width="22" height="22" rx="3" fill="#101010"/><rect x="179" y="171" width="22" height="22" rx="3" fill="#101010"/><rect x="204" y="171" width="22" height="22" rx="3" fill="#101010"/><rect x="229" y="171" width="22" height="22" rx="3" fill="#101010"/><rect x="254" y="171" width="22" height="22" rx="3" fill="#50240c"/><rect x="279" y="171" width="22" height="22" rx="3" fill="#101010"/><rect x="304" y="171" width="22" height="22" rx="3" fill="#101010"/><rect x="329" y="171" width="22" height="22" rx="3" fill="#101010"/><rect x="354" y="171" width="22" height="22" rx="3" fill="#a54006"/><rect x="379" y="171" width="22" height="22" rx="3" fill="#101010"/><rect x="404" y="171" width="22" height="22" rx="3" fill="#101010"/><rect x="429" y="171" width="22" height="22" rx="3" fill="#101010"/><rect x="454" y="171" width="22" height="22" rx="3" fill="#672c0a"/><rect x="479" y="171" width="22" height="22" rx="3" fill="#101010"/><rect x="504" y="171" width="22" height="22" rx="3" fill="#101010"/><rect x="529" y="171" width="22" height="22" rx="3" fill="#101010"/><rect x="554" y="171" width="22" height="22" rx="3" fill="#101010"/><rect x="579" y="171" width="22" height="22" rx="3" fill="#101010"/><rect x="604" y="171" width="22" height="22" rx="3" fill="#101010"/><rect x="629" y="171" width="22" height="22" rx="3" fill="#101010"/><text x="44" y="211.4" fill="#6B6B6B" text-anchor="end" font-family="system-ui,sans-serif" font-size="10">Sat</text><rect x="54" y="196" width="22" height="22" rx="3" fill="#101010"/><rect x="79" y="196" width="22" height="22" rx="3" fill="#101010"/><rect x="104" y="196" width="22" height="22" rx="3" fill="#101010"/><rect x="129" y="196" width="22" height="22" rx="3" fill="#101010"/><rect x="154" y="196" width="22" height="22" rx="3" fill="#101010"/><rect x="179" y="196" width="22" height="22" rx="3" fill="#101010"/><rect x="204" y="196" width="22" height="22" rx="3" fill="#101010"/><rect x="229" y="196" width="22" height="22" rx="3" fill="#101010"/><rect x="254" y="196" width="22" height="22" rx="3" fill="#101010"/><rect x="279" y="196" width="22" height="22" rx="3" fill="#101010"/><rect x="304" y="196" width="22" height="22" rx="3" fill="#101010"/><rect x="329" y="196" width="22" height="22" rx="3" fill="#101010"/><rect x="354" y="196" width="22" height="22" rx="3" fill="#50240c"/><rect x="379" y="196" width="22" height="22" rx="3" fill="#5f290b"/><rect x="404" y="196" width="22" height="22" rx="3" fill="#7b3209"/><rect x="429" y="196" width="22" height="22" rx="3" fill="#672c0a"/><rect x="454" y="196" width="22" height="22" rx="3" fill="#101010"/><rect x="479" y="196" width="22" height="22" rx="3" fill="#101010"/><rect x="504" y="196" width="22" height="22" rx="3" fill="#101010"/><rect x="529" y="196" width="22" height="22" rx="3" fill="#101010"/><rect x="554" y="196" width="22" height="22" rx="3" fill="#101010"/><rect x="579" y="196" width="22" height="22" rx="3" fill="#101010"/><rect x="604" y="196" width="22" height="22" rx="3" fill="#101010"/><rect x="629" y="196" width="22" height="22" rx="3" fill="#101010"/><text x="65" y="248" fill="#6B6B6B" text-anchor="middle" font-family="ui-monospace,monospace" font-size="10">midnight</text><text x="215" y="248" fill="#6B6B6B" text-anchor="middle" font-family="ui-monospace,monospace" font-size="10">6am</text><text x="365" y="248" fill="#6B6B6B" text-anchor="middle" font-family="ui-monospace,monospace" font-size="10">noon</text><text x="515" y="248" fill="#6B6B6B" text-anchor="middle" font-family="ui-monospace,monospace" font-size="10">6pm</text><text x="640" y="248" fill="#6B6B6B" text-anchor="middle" font-family="ui-monospace,monospace" font-size="10">11pm</text></svg>
